<svg viewBox="0 0 3051 994" version="1.1" xmlns="http://www.w3.org/2000/svg" xmlns:xlink="http://www.w3.org/1999/xlink">
    <g id="Page-1" stroke="none" stroke-width="1" fill="none" fill-rule="evenodd">
        <g id="homeheader" transform="translate(-4.000000, -118.000000)" fill="#FFFFFF">
            <g id="Group" transform="translate(8.000000, 0.000000)">
                <path d="M175.446025,118 L0,293.366052 L0,168.00001 C0,140.385767 22.375812,118 49.9912982,118 L175.446025,118 Z M461.177154,118 L1091.0087,118 C1118.61813,118 1141,140.387272 1141,168.00001 L1141,789.99999 C1141,817.614233 1118.62419,840 1091.0087,840 L547.013654,840 L882,505.166349 L610.201857,233.492098 L467.336292,376.292541 L596.543656,505.102427 L404.60458,697.522455 L143.978372,435.054196 L461.177154,118 Z M260.88323,840 L49.9912982,840 C22.3818666,840 0,817.612728 0,789.99999 L0,579.235687 L260.88323,840 Z" id="Combined-Shape" fill-rule="nonzero"></path>
                <path d="M1612.05006,373.091749 C1603.07777,334.382715 1581.16007,307.338068 1546.2963,291.956995 C1526.81361,283.497404 1505.15226,279.267673 1481.3116,279.267673 C1435.68108,279.267673 1398.19028,296.507034 1368.83806,330.986272 C1339.48585,365.465511 1324.80996,417.311767 1324.80996,486.526595 C1324.80996,556.254126 1340.7035,605.600995 1372.49105,634.568683 C1404.2786,663.53637 1440.42358,678.019997 1480.92707,678.019997 C1520.66151,678.019997 1553.21763,666.548452 1578.5964,643.605018 C1603.97517,620.661584 1619.61236,590.604855 1625.50843,553.433928 L1494.38544,553.433928 L1494.38544,458.840802 L1730.48373,458.840802 L1730.48373,763 L1652.04065,763 L1640.12038,692.247418 C1617.30512,719.164296 1596.79733,738.134001 1578.5964,749.157104 C1547.32155,768.383445 1508.86944,777.996471 1463.23893,777.996471 C1388.12802,777.996471 1326.60465,751.977213 1278.66697,699.937916 C1228.67849,647.642268 1203.68462,576.121351 1203.68462,485.373021 C1203.68462,393.599285 1228.93483,320.027589 1279.43602,264.655727 C1329.93721,209.283864 1396.7157,181.598348 1479.7735,181.598348 C1551.80819,181.598348 1609.67861,199.863098 1653.38649,236.393146 C1697.09437,272.923195 1722.15233,318.48894 1728.56111,373.091749 L1612.05006,373.091749 Z M1951.97008,763 L1834.30546,763 L1834.30546,196.210294 L1951.97008,196.210294 L1951.97008,763 Z M2062.32872,196.210294 L2180.76239,196.210294 L2180.76239,661.100901 L2461.46557,661.100901 L2461.46557,763 L2062.32872,763 L2062.32872,196.210294 Z M2698.33291,548.819629 L2842.14523,548.819629 L2771.39264,325.795186 L2698.33291,548.819629 Z M2705.63889,196.210294 L2839.45355,196.210294 L3040.17555,763 L2911.74423,763 L2875.21437,646.488955 L2666.41735,646.488955 L2627.19581,763 L2503.37879,763 L2705.63889,196.210294 Z" id="GILA"></path>
            </g>
            <path d="M123.064071,1024.67073 L92.9296713,936.970173 L60.9034262,1024.67073 L123.064071,1024.67073 Z M78.8759604,907.511433 L109.280623,907.511433 L181.305892,1106.0201 L151.847152,1106.0201 L131.712508,1046.56209 L53.2009115,1046.56209 L31.7149496,1106.0201 L4.14805508,1106.0201 L78.8759604,907.511433 Z M205.764754,907.511433 L232.65599,907.511433 L232.65599,1082.37203 L333.194076,1082.37203 L333.194076,1106.0201 L205.764754,1106.0201 L205.764754,907.511433 Z M483.730941,907.511433 L483.730941,931.159504 L416.840682,931.159504 L416.840682,1106.0201 L389.544051,1106.0201 L389.544051,931.159504 L322.653792,931.159504 L322.653792,907.511433 L483.730941,907.511433 Z M589.809432,1024.67073 L559.675033,936.970173 L527.648788,1024.67073 L589.809432,1024.67073 Z M545.621322,907.511433 L576.025985,907.511433 L648.051253,1106.0201 L618.592513,1106.0201 L598.45787,1046.56209 L519.946273,1046.56209 L498.460311,1106.0201 L470.893416,1106.0201 L545.621322,907.511433 Z M675.483016,907.511433 L712.914535,1068.99398 L757.778304,907.511433 L786.966781,907.511433 L831.83055,1068.99398 L869.262069,907.511433 L898.720809,907.511433 L846.55992,1106.0201 L818.317367,1106.0201 L772.507674,941.429524 L726.427718,1106.0201 L698.185164,1106.0201 L646.294539,907.511433 L675.483016,907.511433 Z M1015.33958,1024.67073 L985.205184,936.970173 L953.178939,1024.67073 L1015.33958,1024.67073 Z M971.151473,907.511433 L1001.55614,907.511433 L1073.5814,1106.0201 L1044.12266,1106.0201 L1023.98802,1046.56209 L945.476424,1046.56209 L923.990462,1106.0201 L896.423568,1106.0201 L971.151473,907.511433 Z M1098.04027,907.511433 L1124.25584,907.511433 L1124.25584,1004.26583 L1221.01024,907.511433 L1258.17149,907.511433 L1175.60594,987.50948 L1260.46873,1106.0201 L1225.46959,1106.0201 L1156.01182,1006.42794 L1124.25584,1036.8326 L1124.25584,1106.0201 L1098.04027,1106.0201 L1098.04027,907.511433 Z M1368.30394,902.10616 C1403.3483,902.10616 1429.29336,913.367033 1446.13988,935.889119 C1459.29277,953.456345 1465.86912,975.933049 1465.86912,1003.3199 C1465.86912,1032.95897 1458.34686,1057.59776 1443.30211,1077.23702 C1425.64479,1100.29963 1400.46548,1111.83077 1367.76341,1111.83077 C1337.22346,1111.83077 1313.21528,1101.74103 1295.73814,1081.56124 C1280.15286,1062.10216 1272.36034,1037.50841 1272.36034,1007.77926 C1272.36034,980.93293 1279.02677,957.960747 1292.35985,938.862019 C1309.47663,914.35799 1334.79108,902.10616 1368.30394,902.10616 Z M1371.00658,1087.7773 C1394.69981,1087.7773 1411.83886,1079.2866 1422.42424,1062.30495 C1433.00962,1045.3233 1438.30223,1025.79694 1438.30223,1003.7253 C1438.30223,980.39242 1432.19884,961.609282 1419.99187,947.375325 C1407.7849,933.141367 1391.09628,926.024495 1369.92552,926.024495 C1349.38538,926.024495 1332.6292,933.073801 1319.65648,947.172627 C1306.68376,961.271452 1300.19749,982.059025 1300.19749,1009.53597 C1300.19749,1031.51752 1305.76037,1050.05292 1316.88628,1065.14272 C1328.01219,1080.23252 1346.05211,1087.7773 1371.00658,1087.7773 Z M1497.89537,907.511433 L1524.7866,907.511433 L1524.7866,1082.37203 L1625.32469,1082.37203 L1625.32469,1106.0201 L1497.89537,1106.0201 L1497.89537,907.511433 Z M1721.13316,907.511433 L1865.85936,907.511433 L1865.85936,931.835163 L1747.34874,931.835163 L1747.34874,992.103962 L1856.94066,992.103962 L1856.94066,1015.07637 L1747.34874,1015.07637 L1747.34874,1082.37203 L1867.88634,1082.37203 L1867.88634,1106.0201 L1721.13316,1106.0201 L1721.13316,907.511433 Z M1903.15575,907.511433 L1930.04698,907.511433 L1930.04698,1082.37203 L2030.58507,1082.37203 L2030.58507,1106.0201 L1903.15575,1106.0201 L1903.15575,907.511433 Z M2059.63841,907.511433 L2204.36461,907.511433 L2204.36461,931.835163 L2085.85399,931.835163 L2085.85399,992.103962 L2195.44591,992.103962 L2195.44591,1015.07637 L2085.85399,1015.07637 L2085.85399,1082.37203 L2206.39159,1082.37203 L2206.39159,1106.0201 L2059.63841,1106.0201 L2059.63841,907.511433 Z M2325.3076,902.10616 C2350.44225,902.10616 2369.94608,908.727553 2383.81969,921.970539 C2397.69329,935.213526 2405.39573,950.258053 2406.92723,967.104573 L2380.71165,967.104573 C2377.73874,954.312028 2371.81552,944.177242 2362.94182,936.69991 C2354.06812,929.222577 2341.61359,925.483967 2325.57786,925.483967 C2306.02869,925.483967 2290.24095,932.3531 2278.21416,946.091572 C2266.18736,959.830044 2260.17406,980.887878 2260.17406,1009.26571 C2260.17406,1032.5085 2265.6018,1051.3592 2276.45744,1065.81838 C2287.31309,1080.27756 2303.50622,1087.50704 2325.03734,1087.50704 C2344.85677,1087.50704 2359.94634,1079.89469 2370.3065,1064.66976 C2375.80189,1056.6519 2379.90085,1046.11172 2382.6035,1033.04891 L2408.81908,1033.04891 C2406.47678,1053.9494 2398.7293,1071.47132 2385.5764,1085.61519 C2369.81094,1102.64189 2348.55041,1111.15511 2321.79417,1111.15511 C2298.73156,1111.15511 2279.36286,1104.17337 2263.68748,1090.20968 C2243.05725,1071.74157 2232.74229,1043.22903 2232.74229,1004.67122 C2232.74229,975.392512 2240.48977,951.384329 2255.98497,932.645954 C2272.7414,912.285989 2295.84871,902.10616 2325.3076,902.10616 Z M2585.97691,907.511433 L2585.97691,931.159504 L2519.08665,931.159504 L2519.08665,1106.0201 L2491.79002,1106.0201 L2491.79002,931.159504 L2424.89976,931.159504 L2424.89976,907.511433 L2585.97691,907.511433 Z M2702.86595,998.455159 C2715.47832,998.455159 2725.45545,995.932723 2732.79765,990.887776 C2740.13985,985.842829 2743.8109,976.744043 2743.8109,963.591145 C2743.8109,949.447275 2738.67594,939.807967 2728.40587,934.672932 C2722.91048,931.970282 2715.56839,930.618977 2706.37938,930.618977 L2640.70531,930.618977 L2640.70531,998.455159 L2702.86595,998.455159 Z M2613.81407,907.511433 L2705.70372,907.511433 C2720.83856,907.511433 2733.31561,909.718564 2743.13524,914.132893 C2761.78352,922.601197 2771.10753,938.23129 2771.10753,961.02364 C2771.10753,972.915301 2768.65266,982.644696 2763.74284,990.212117 C2758.83303,997.779537 2751.9639,1003.86041 2743.13524,1008.45491 C2750.88284,1011.60801 2756.71597,1015.75201 2760.63481,1020.88704 C2764.55365,1026.02208 2766.73826,1034.35513 2767.1887,1045.88643 L2768.13463,1072.5074 C2768.40489,1080.07483 2769.0355,1085.70526 2770.02647,1089.39888 C2771.64806,1095.70507 2774.53085,1099.75898 2778.67491,1101.56075 L2778.67491,1106.0201 L2745.70274,1106.0201 C2744.80186,1104.30842 2744.08116,1102.10129 2743.54063,1099.39864 C2743.0001,1096.69599 2742.54967,1091.47094 2742.18931,1083.72335 L2740.56773,1050.61605 C2739.93711,1037.64333 2735.11746,1028.94993 2726.10863,1024.5356 C2720.97359,1022.10322 2712.91081,1020.88704 2701.92003,1020.88704 L2640.70531,1020.88704 L2640.70531,1106.0201 L2613.81407,1106.0201 L2613.81407,907.511433 Z M2816.51182,907.511433 L2843.67332,907.511433 L2843.67332,1106.0201 L2816.51182,1106.0201 L2816.51182,907.511433 Z M2970.96751,902.10616 C2996.10216,902.10616 3015.60599,908.727553 3029.4796,921.970539 C3043.3532,935.213526 3051.05564,950.258053 3052.58714,967.104573 L3026.37157,967.104573 C3023.39865,954.312028 3017.47543,944.177242 3008.60173,936.69991 C2999.72803,929.222577 2987.2735,925.483967 2971.23778,925.483967 C2951.68861,925.483967 2935.90086,932.3531 2923.87407,946.091572 C2911.84727,959.830044 2905.83397,980.887878 2905.83397,1009.26571 C2905.83397,1032.5085 2911.26171,1051.3592 2922.11735,1065.81838 C2932.973,1080.27756 2949.16614,1087.50704 2970.69725,1087.50704 C2990.51668,1087.50704 3005.60626,1079.89469 3015.96641,1064.66976 C3021.4618,1056.6519 3025.56076,1046.11172 3028.26341,1033.04891 L3054.47899,1033.04891 C3052.13669,1053.9494 3044.38921,1071.47132 3031.23631,1085.61519 C3015.47085,1102.64189 2994.21032,1111.15511 2967.45409,1111.15511 C2944.39147,1111.15511 2925.02277,1104.17337 2909.3474,1090.20968 C2888.71717,1071.74157 2878.40221,1043.22903 2878.40221,1004.67122 C2878.40221,975.392512 2886.14969,951.384329 2901.64488,932.645954 C2918.40131,912.285989 2941.50863,902.10616 2970.96751,902.10616 Z" id="ALTAWAKOL-ELECTRIC"></path>
        </g>
    </g>
</svg>